# xmcd
#
# Track frame offsets:
#	150
#	13148
#	42961
#	54412
#	98575
#	120824
#	153968
#	163667
#	181678
#	194329
#	209847
#	223857
#	236650
#	251271
#	264432
#
# Disc length: 3640
#
# Revision: 2
# Processed by: cddbd v1.5.1PL0 Copyright (c) Steve Scherf et al.
# Submitted via: EasyCDDAExtractor 7.1.0.1
# Normalized: r1:DSETVAR1
#
DISCID=c50e360f
DTITLE=Various Artist - Blues Legends
DYEAR=2000
DGENRE=Blues
TTITLE0=Otis Rush and Little Walter - I Feel Good
TTITLE1=Big Joe Turner - How Long Blues
TTITLE2=Magic Sam - J. T. Shuffle
TTITLE3=Mississipi Fred McDowell - Go To Move
TTITLE4=James Cotton - Dealing With The Devil
TTITLE5=Piano Red - Bald Headed Leaner
TTITLE6=John Lee Hooker - I'm Leaving Baby
TTITLE7=Brownie and Sonny - I'm A Stranger Here
TTITLE8=Big Joe Williams - Great Gospel Blues
TTITLE9=Big Joe Turner - Ain't Gonna Be Your Low Down Dog
TTITLE10=Leadbelly - Boll Weavil Blues
TTITLE11=Magic Sam - Barbeque Blues
TTITLE12=Screamin' Jay Hawkins - Africa Gone funky
TTITLE13=Brownie McChee - Born For Bad Luck
TTITLE14=Cowbot Capas - Gamblin Man Blues (Dupree)
EXTD=
EXTT0=
EXTT1=
EXTT2=
EXTT3=
EXTT4=
EXTT5=
EXTT6=
EXTT7=
EXTT8=
EXTT9=
EXTT10=
EXTT11=
EXTT12=
EXTT13=
EXTT14=
PLAYORDER=
